{
  "accessors": [
    {
      "bufferView": 2,
      "componentType": 5126,
      "count": 22261,
      "max": [
        1.2066240310668945,
        8.102395057678223,
        0.966148853302002
      ],
      "min": [
        -1.2066240310668945,
        -7.171992778778076,
        -1.7665451765060425
      ],
      "type": "VEC3"
    },
    {
      "bufferView": 2,
      "byteOffset": 267132,
      "componentType": 5126,
      "count": 22261,
      "max": [
        1.0,
        1.0,
        1.0
      ],
      "min": [
        -1.0,
        -1.0,
        -1.0
      ],
      "type": "VEC3"
    },
    {
      "bufferView": 3,
      "componentType": 5126,
      "count": 22261,
      "max": [
        1.0,
        1.0,
        1.0,
        1.0
      ],
      "min": [
        -1.0,
        -1.0,
        -1.0,
        -1.0
      ],
      "type": "VEC4"
    },
    {
      "bufferView": 1,
      "componentType": 5126,
      "count": 22261,
      "max": [
        0.9989981055259705,
        0.997453510761261
      ],
      "min": [
        0.0009946227073669434,
        0.0009942110627889633
      ],
      "type": "VEC2"
    },
    {
      "bufferView": 1,
      "byteOffset": 178088,
      "componentType": 5126,
      "count": 22261,
      "max": [
        0.9989981055259705,
        0.997453510761261
      ],
      "min": [
        0.0009946227073669434,
        0.0009942110627889633
      ],
      "type": "VEC2"
    },
    {
      "bufferView": 0,
      "componentType": 5125,
      "count": 50982,
      "type": "SCALAR"
    },
    {
      "bufferView": 2,
      "byteOffset": 534264,
      "componentType": 5126,
      "count": 8200,
      "max": [
        1.5645660161972046,
        2.433204174041748,
        1.0596541166305542
      ],
      "min": [
        -1.5645660161972046,
        -17.890165328979492,
        -4.85113525390625
      ],
      "type": "VEC3"
    },
    {
      "bufferView": 2,
      "byteOffset": 632664,
      "componentType": 5126,
      "count": 8200,
      "max": [
        1.0,
        1.0,
        1.0
      ],
      "min": [
        -1.0,
        -1.0,
        -1.0
      ],
      "type": "VEC3"
    },
    {
      "bufferView": 3,
      "byteOffset": 356176,
      "componentType": 5126,
      "count": 8200,
      "max": [
        1.0,
        1.0,
        1.0,
        1.0
      ],
      "min": [
        -1.0,
        -1.0,
        -1.0,
        1.0
      ],
      "type": "VEC4"
    },
    {
      "bufferView": 1,
      "byteOffset": 356176,
      "componentType": 5126,
      "count": 8200,
      "max": [
        0.9989840388298035,
        0.998972475528717
      ],
      "min": [
        0.0010086535476148129,
        0.001008213497698307
      ],
      "type": "VEC2"
    },
    {
      "bufferView": 1,
      "byteOffset": 421776,
      "componentType": 5126,
      "count": 8200,
      "max": [
        0.9989840388298035,
        0.998972475528717
      ],
      "min": [
        0.0010086535476148129,
        0.001008213497698307
      ],
      "type": "VEC2"
    },
    {
      "bufferView": 0,
      "byteOffset": 203928,
      "componentType": 5125,
      "count": 21138,
      "type": "SCALAR"
    },
    {
      "bufferView": 2,
      "byteOffset": 731064,
      "componentType": 5126,
      "count": 38554,
      "max": [
        1.2986376285552979,
        8.323565483093262,
        0.6743733882904053
      ],
      "min": [
        -1.2377750873565674,
        -7.194338321685791,
        -2.709503412246704
      ],
      "type": "VEC3"
    },
    {
      "bufferView": 2,
      "byteOffset": 1193712,
      "componentType": 5126,
      "count": 38554,
      "max": [
        1.0,
        1.0,
        1.0
      ],
      "min": [
        -1.0,
        -1.0,
        -1.0
      ],
      "type": "VEC3"
    },
    {
      "bufferView": 3,
      "byteOffset": 487376,
      "componentType": 5126,
      "count": 38554,
      "max": [
        1.0,
        1.0,
        1.0,
        1.0
      ],
      "min": [
        -1.0,
        -1.0,
        -1.0,
        1.0
      ],
      "type": "VEC4"
    },
    {
      "bufferView": 1,
      "byteOffset": 487376,
      "componentType": 5126,
      "count": 38554,
      "max": [
        0.9990766048431396,
        0.998711109161377
      ],
      "min": [
        0.0009196711471304297,
        0.0009199847117997706
      ],
      "type": "VEC2"
    },
    {
      "bufferView": 1,
      "byteOffset": 795808,
      "componentType": 5126,
      "count": 38554,
      "max": [
        0.9990766048431396,
        0.998711109161377
      ],
      "min": [
        0.0009196711471304297,
        0.0009199847117997706
      ],
      "type": "VEC2"
    },
    {
      "bufferView": 0,
      "byteOffset": 288480,
      "componentType": 5125,
      "count": 87690,
      "type": "SCALAR"
    },
    {
      "bufferView": 2,
      "byteOffset": 1656360,
      "componentType": 5126,
      "count": 65532,
      "max": [
        1.2290951013565063,
        7.270512580871582,
        2.358400583267212
      ],
      "min": [
        -1.2288963794708252,
        -8.364517211914063,
        -0.20890916883945465
      ],
      "type": "VEC3"
    },
    {
      "bufferView": 2,
      "byteOffset": 2442744,
      "componentType": 5126,
      "count": 65532,
      "max": [
        1.0,
        1.0,
        1.0
      ],
      "min": [
        -1.0,
        -1.0,
        -1.0
      ],
      "type": "VEC3"
    },
    {
      "bufferView": 3,
      "byteOffset": 1104240,
      "componentType": 5126,
      "count": 65532,
      "max": [
        1.0,
        1.0,
        1.0,
        1.0
      ],
      "min": [
        -1.0,
        -1.0,
        -1.0,
        -1.0
      ],
      "type": "VEC4"
    },
    {
      "bufferView": 1,
      "byteOffset": 1104240,
      "componentType": 5126,
      "count": 65532,
      "max": [
        0.998957633972168,
        0.9989988207817078
      ],
      "min": [
        0.0009889602661132813,
        0.0009948264341801405
      ],
      "type": "VEC2"
    },
    {
      "bufferView": 1,
      "byteOffset": 1628496,
      "componentType": 5126,
      "count": 65532,
      "max": [
        0.998957633972168,
        0.9989988207817078
      ],
      "min": [
        0.0009889602661132813,
        0.0009948264341801405
      ],
      "type": "VEC2"
    },
    {
      "bufferView": 0,
      "byteOffset": 639240,
      "componentType": 5125,
      "count": 240393,
      "type": "SCALAR"
    },
    {
      "bufferView": 2,
      "byteOffset": 3229128,
      "componentType": 5126,
      "count": 8051,
      "max": [
        0.9782341122627258,
        7.260990142822266,
        2.2589914798736572
      ],
      "min": [
        -0.9780271649360657,
        -7.966761112213135,
        -0.07012375444173813
      ],
      "type": "VEC3"
    },
    {
      "bufferView": 2,
      "byteOffset": 3325740,
      "componentType": 5126,
      "count": 8051,
      "max": [
        1.0,
        1.0,
        1.0
      ],
      "min": [
        -1.0,
        -1.0,
        -1.0
      ],
      "type": "VEC3"
    },
    {
      "bufferView": 3,
      "byteOffset": 2152752,
      "componentType": 5126,
      "count": 8051,
      "max": [
        1.0,
        1.0,
        1.0,
        1.0
      ],
      "min": [
        -1.0,
        -1.0,
        -1.0,
        -1.0
      ],
      "type": "VEC4"
    },
    {
      "bufferView": 1,
      "byteOffset": 2152752,
      "componentType": 5126,
      "count": 8051,
      "max": [
        0.9989593029022217,
        0.9550658464431763
      ],
      "min": [
        0.0009989443933591247,
        0.000995904323644936
      ],
      "type": "VEC2"
    },
    {
      "bufferView": 1,
      "byteOffset": 2217160,
      "componentType": 5126,
      "count": 8051,
      "max": [
        0.9989593029022217,
        0.9550658464431763
      ],
      "min": [
        0.0009989443933591247,
        0.000995904323644936
      ],
      "type": "VEC2"
    },
    {
      "bufferView": 0,
      "byteOffset": 1600812,
      "componentType": 5125,
      "count": 20715,
      "type": "SCALAR"
    }
  ],
  "asset": {
    "extras": {
      "author": "Se_Oscar_Ya (https://sketchfab.com/Se_Oscar_Ya)",
      "license": "CC-BY-4.0 (http://creativecommons.org/licenses/by/4.0/)",
      "source": "https://sketchfab.com/3d-models/slj-900-b31584b03f9b440e9782c2ac94e97100",
      "title": "SLJ-900"
    },
    "generator": "Sketchfab-12.97.0",
    "version": "2.0"
  },
  "bufferViews": [
    {
      "buffer": 0,
      "byteLength": 1683672,
      "name": "floatBufferViews",
      "target": 34963
    },
    {
      "buffer": 0,
      "byteLength": 2281568,
      "byteOffset": 1683672,
      "byteStride": 8,
      "name": "floatBufferViews",
      "target": 34962
    },
    {
      "buffer": 0,
      "byteLength": 3422352,
      "byteOffset": 3965240,
      "byteStride": 12,
      "name": "floatBufferViews",
      "target": 34962
    },
    {
      "buffer": 0,
      "byteLength": 2281568,
      "byteOffset": 7387592,
      "byteStride": 16,
      "name": "floatBufferViews",
      "target": 34962
    }
  ],
  "buffers": [
    {
      "byteLength": 9669160,
      "uri": "scene.bin"
    }
  ],
  "images": [
    {
      "uri": "textures/Crane_baseColor.png"
    },
    {
      "uri": "textures/Crane_metallicRoughness.png"
    },
    {
      "uri": "textures/Crane_normal.png"
    },
    {
      "uri": "textures/Brige_baseColor.png"
    },
    {
      "uri": "textures/Brige_metallicRoughness.png"
    },
    {
      "uri": "textures/Brige_normal.png"
    },
    {
      "uri": "textures/Crane2_baseColor.png"
    },
    {
      "uri": "textures/Crane2_metallicRoughness.png"
    },
    {
      "uri": "textures/Crane2_normal.png"
    },
    {
      "uri": "textures/Wires_baseColor.png"
    },
    {
      "uri": "textures/Wires_metallicRoughness.png"
    },
    {
      "uri": "textures/Wires_normal.png"
    }
  ],
  "materials": [
    {
      "doubleSided": true,
      "name": "Crane",
      "normalTexture": {
        "index": 2
      },
      "occlusionTexture": {
        "index": 1
      },
      "pbrMetallicRoughness": {
        "baseColorTexture": {
          "index": 0
        },
        "metallicRoughnessTexture": {
          "index": 1
        }
      }
    },
    {
      "doubleSided": true,
      "name": "Brige",
      "normalTexture": {
        "index": 5
      },
      "occlusionTexture": {
        "index": 4
      },
      "pbrMetallicRoughness": {
        "baseColorTexture": {
          "index": 3
        },
        "metallicRoughnessTexture": {
          "index": 4
        }
      }
    },
    {
      "doubleSided": true,
      "name": "Crane2",
      "normalTexture": {
        "index": 8
      },
      "occlusionTexture": {
        "index": 7
      },
      "pbrMetallicRoughness": {
        "baseColorTexture": {
          "index": 6
        },
        "metallicRoughnessTexture": {
          "index": 7
        }
      }
    },
    {
      "doubleSided": true,
      "name": "Wires",
      "normalTexture": {
        "index": 11
      },
      "occlusionTexture": {
        "index": 10
      },
      "pbrMetallicRoughness": {
        "baseColorTexture": {
          "index": 9
        },
        "metallicRoughnessTexture": {
          "index": 10
        }
      }
    }
  ],
  "meshes": [
    {
      "name": "Crane_low_Crane_0",
      "primitives": [
        {
          "attributes": {
            "NORMAL": 1,
            "POSITION": 0,
            "TANGENT": 2,
            "TEXCOORD_0": 3,
            "TEXCOORD_1": 4
          },
          "indices": 5,
          "material": 0,
          "mode": 4
        }
      ]
    },
    {
      "name": "Brige_low_Brige_0",
      "primitives": [
        {
          "attributes": {
            "NORMAL": 7,
            "POSITION": 6,
            "TANGENT": 8,
            "TEXCOORD_0": 9,
            "TEXCOORD_1": 10
          },
          "indices": 11,
          "material": 1,
          "mode": 4
        }
      ]
    },
    {
      "name": "Crane2_low_Crane2_0",
      "primitives": [
        {
          "attributes": {
            "NORMAL": 13,
            "POSITION": 12,
            "TANGENT": 14,
            "TEXCOORD_0": 15,
            "TEXCOORD_1": 16
          },
          "indices": 17,
          "material": 2,
          "mode": 4
        }
      ]
    },
    {
      "name": "WIres_low_Wires_0",
      "primitives": [
        {
          "attributes": {
            "NORMAL": 19,
            "POSITION": 18,
            "TANGENT": 20,
            "TEXCOORD_0": 21,
            "TEXCOORD_1": 22
          },
          "indices": 23,
          "material": 3,
          "mode": 4
        }
      ]
    },
    {
      "name": "WIres_low_Wires_0",
      "primitives": [
        {
          "attributes": {
            "NORMAL": 25,
            "POSITION": 24,
            "TANGENT": 26,
            "TEXCOORD_0": 27,
            "TEXCOORD_1": 28
          },
          "indices": 29,
          "material": 3,
          "mode": 4
        }
      ]
    }
  ],
  "nodes": [
    {
      "children": [
        1
      ],
      "matrix": [
        1.0,
        0.0,
        0.0,
        0.0,
        0.0,
        2.220446049250313e-16,
        -1.0,
        0.0,
        0.0,
        1.0,
        2.220446049250313e-16,
        0.0,
        0.0,
        0.0,
        0.0,
        1.0
      ],
      "name": "Sketchfab_model"
    },
    {
      "children": [
        2
      ],
      "matrix": [
        0.009999999776482582,
        0.0,
        0.0,
        0.0,
        0.0,
        0.0,
        0.009999999776482582,
        0.0,
        0.0,
        -0.009999999776482582,
        0.0,
        0.0,
        0.0,
        0.0,
        0.0,
        1.0
      ],
      "name": "22ffb0bb0e074c9da576bea08f261b31.fbx"
    },
    {
      "children": [
        3,
        5,
        7,
        9
      ],
      "name": "RootNode"
    },
    {
      "children": [
        4
      ],
      "matrix": [
        100.0,
        0.0,
        0.0,
        0.0,
        0.0,
        -1.629206793918314e-05,
        -99.99999999999868,
        0.0,
        0.0,
        99.99999999999868,
        -1.629206793918314e-05,
        0.0,
        7.450580596923828e-07,
        -39.85134506225586,
        -586.0182495117188,
        1.0
      ],
      "name": "Crane_low"
    },
    {
      "mesh": 0,
      "name": "Crane_low_Crane_0"
    },
    {
      "children": [
        6
      ],
      "matrix": [
        100.0,
        0.0,
        0.0,
        0.0,
        -0.0,
        -1.629206793918314e-05,
        -99.99999999999868,
        0.0,
        0.0,
        99.99999999999868,
        -1.629206793918314e-05,
        0.0,
        -5.259233262222551e-07,
        -260.73309326171875,
        -1720.606201171875,
        1.0
      ],
      "name": "Brige_low"
    },
    {
      "mesh": 1,
      "name": "Brige_low_Brige_0"
    },
    {
      "children": [
        8
      ],
      "matrix": [
        100.0,
        0.0,
        0.0,
        0.0,
        0.0,
        -1.629206793918314e-05,
        -99.99999999999868,
        0.0,
        0.0,
        99.99999999999868,
        -1.629206793918314e-05,
        0.0,
        0.0,
        -39.85134506225586,
        -606.7907104492188,
        1.0
      ],
      "name": "Crane2_low"
    },
    {
      "mesh": 2,
      "name": "Crane2_low_Crane2_0"
    },
    {
      "children": [
        10,
        11
      ],
      "matrix": [
        100.0,
        0.0,
        0.0,
        0.0,
        0.0,
        -1.629206793918314e-05,
        -99.99999999999868,
        0.0,
        0.0,
        99.99999999999868,
        -1.629206793918314e-05,
        0.0,
        0.000567464274354279,
        -195.0798797607422,
        -706.25927734375,
        1.0
      ],
      "name": "WIres_low"
    },
    {
      "mesh": 3,
      "name": "WIres_low_Wires_0"
    },
    {
      "mesh": 4,
      "name": "WIres_low_Wires_0"
    }
  ],
  "samplers": [
    {
      "magFilter": 9729,
      "minFilter": 9987,
      "wrapS": 10497,
      "wrapT": 10497
    }
  ],
  "scene": 0,
  "scenes": [
    {
      "name": "Sketchfab_Scene",
      "nodes": [
        0
      ]
    }
  ],
  "textures": [
    {
      "sampler": 0,
      "source": 0
    },
    {
      "sampler": 0,
      "source": 1
    },
    {
      "sampler": 0,
      "source": 2
    },
    {
      "sampler": 0,
      "source": 3
    },
    {
      "sampler": 0,
      "source": 4
    },
    {
      "sampler": 0,
      "source": 5
    },
    {
      "sampler": 0,
      "source": 6
    },
    {
      "sampler": 0,
      "source": 7
    },
    {
      "sampler": 0,
      "source": 8
    },
    {
      "sampler": 0,
      "source": 9
    },
    {
      "sampler": 0,
      "source": 10
    },
    {
      "sampler": 0,
      "source": 11
    }
  ]
}
